<?xml version="1.0" ?><svg viewBox="0 0 64 64" xmlns="http://www.w3.org/2000/svg"><title/><path d="M59.043,14.137a3.958,3.958,0,0,0-.484-.478,4.02,4.02,0,0,0-1.42-4.064,4.085,4.085,0,0,0-4.54-.281,15.7,15.7,0,0,1-3.178,1.465A14.257,14.257,0,0,0,41,8c-6.329,0-12.73,3.98-13.833,11.62A23.342,23.342,0,0,1,14.13,11.348,4.161,4.161,0,0,0,11,10c-1.745,0-3.258,1.25-4.148,3.431a12.8,12.8,0,0,0,.194,9.8A3.913,3.913,0,0,0,6,26a15.529,15.529,0,0,0,3.438,9.168c-.635.635-.408,2.2-.379,2.317a10.391,10.391,0,0,0,6.225,7.341A15.132,15.132,0,0,0,22,46a2,2,0,1,0,0-4c-6.036,0-8-2.4-8.786-4.579A4.931,4.931,0,0,1,13,36c.969,1,4.344.844,5,0-5-1-7.946-6.325-8-10a7.162,7.162,0,0,0,4,1,9.081,9.081,0,0,1-4-8,10.287,10.287,0,0,1,1.006-5.152A26.666,26.666,0,0,0,31,24c-1-9,4.52-12,10-12a9.14,9.14,0,0,1,7,3,14.9,14.9,0,0,0,6.664-2.262A12.2,12.2,0,0,1,50,19c2.007-.244,4.221-1.462,6-2.265a20.366,20.366,0,0,1-4.951,5.227q.029.65.029,1.306C51.08,36.613,41.1,52,22.851,52,17.248,52,12,51,8,47.266c-.195-.182-.329-.424-.586-.68a2,2,0,0,0-2.828,2.828C9.02,53.846,15.043,56,23,56A29.868,29.868,0,0,0,46.514,45.309a34.42,34.42,0,0,0,8.551-21.446,24.382,24.382,0,0,0,4.281-4.933A4.019,4.019,0,0,0,59.043,14.137Z"/></svg>